#!OML:ASF F:\VICON\USERDATA\INSTALL\Justin_Nancy\Justin_Nancy.ASF
:FULLY-SPECIFIED
:DEGREES
34
root -11.5489 17.9686 -17.3785 3.49383 8.31493 -12.4475
lowerback 5.76501 2.42031 5.63304
upperback -0.493981 3.78599 4.10117
thorax -3.66584 1.81418 0.763183
lowerneck -19.9532 -5.61524 -9.14856
upperneck 13.0813 -6.37967 7.36764
head 7.83737 -2.79831 3.12653
rclavicle -2.80783e-015 1.23246e-014
rhumerus -42.1944 24.7794 -93.9182
rradius 113.154
rwrist -1.16294
rhand -11.8829 26.6832
rfingers 7.12502
rthumb 14.1698 -2.81355
lclavicle -2.80783e-015 1.23246e-014
lhumerus -60.2149 -3.75799 87.8103
lradius 109.951
lwrist 24.2379
lhand -16.2983 10.1375
lfingers 7.12502
lthumb 9.91233 39.8842
rfemur 10.4179 0.910023 27.5442
rtibia 45.8482
rfoot 20.4501 -7.20375
rtoes 8.93325
lfemur -27.1244 5.06225 -26.2636
ltibia 17.5656
lfoot 8.07912 4.19361
ltoes -8.54299
35
root -11.5181 17.8565 -16.9976 2.518 9.33314 -12.2186
lowerback 6.49932 2.02315 4.98087
upperback -0.375455 3.26949 4.21916
thorax -4.01141 1.56704 1.26306
lowerneck -19.7686 -5.41079 -9.21031
upperneck 13.3444 -6.09037 7.23961
head 7.86616 -2.68087 3.13616
rclavicle 1.34801e-014 3.27001e-014
rhumerus -42.9055 24.3009 -93.7871
rradius 112.837
rwrist -1.00897
rhand -11.7773 26.8501
rfingers 7.12502
rthumb 14.2716 -2.63953
lclavicle 1.34801e-014 3.27001e-014
lhumerus -59.8226 -3.54939 87.438
lradius 109.948
lwrist 24.4944
lhand -15.9708 9.57137
lfingers 7.12502
lthumb 10.2283 39.3027
rfemur 10.4364 -0.0155084 26.9582
rtibia 49.1147
rfoot 20.2646 -7.50709
rtoes 8.22958
lfemur -25.5789 6.08402 -27.3051
ltibia 17.4829
lfoot 9.00024 2.56495
ltoes -0.213282
36
root -11.48 17.7439 -16.6181 1.87585 10.4453 -11.8712
lowerback 6.77066 1.64815 4.25284
upperback -0.145953 2.72255 4.29028
thorax -3.96747 1.31438 1.78882
lowerneck -19.8629 -5.25675 -9.20114
upperneck 13.3727 -5.8456 7.08177
head 7.86445 -2.57776 3.11347
rclavicle -7.99239e-014 -5.22804e-014
rhumerus -43.1948 23.7757 -93.4347
rradius 112.441
rwrist -0.843509
rhand -12.0638 26.8537
rfingers 7.12502
rthumb 13.9956 -2.65521
lclavicle -7.99239e-014 -5.22804e-014
lhumerus -59.0072 -3.51842 87.1086
lradius 110.004
lwrist 24.7544
lhand -15.6443 9.54433
lfingers 7.12502
lthumb 10.5433 39.2599
rfemur 10.0578 -1.16326 26.0049
rtibia 52.4838
rfoot 19.8418 -7.39375
rtoes 8.65806
lfemur -24.8559 7.08329 -28.5389
ltibia 18.8828
lfoot 8.64921 0.849792
ltoes 14.1004
37
root -11.4372 17.6276 -16.2397 1.3384 11.3964 -11.762
lowerback 6.83235 1.34456 3.85606
upperback 0.121619 2.27833 4.37183
thorax -3.74083 1.10679 2.14007
lowerneck -19.9356 -5.1405 -9.19872
upperneck 13.2978 -5.64508 6.91084
head 7.82871 -2.49762 3.08117
rclavicle -1.86982e-014 1.39149e-015
rhumerus -43.4047 23.1537 -92.9996
rradius 112.166
rwrist -0.704875
rhand -12.4177 26.6475
rfingers 7.12502
rthumb 13.6545 -2.88462
lclavicle -1.86982e-014 1.39149e-015
lhumerus -57.941 -3.63273 86.7024
lradius 110.086
lwrist 24.7473
lhand -15.3214 9.6381
lfingers 7.12502
lthumb 10.8547 39.3376
rfemur 9.32434 -2.23815 25.1192
rtibia 56.0868
rfoot 18.6178 -7.95567
rtoes 11.5741
lfemur -24.654 8.05063 -29.4853
ltibia 21.598
lfoot 6.14509 0.252277
ltoes 19.548
38
root -11.3911 17.4944 -15.8954 1.02354 11.4924 -12.4361
lowerback 7.0024 1.30265 4.34406
upperback 0.185452 2.27774 4.54633
thorax -3.75928 1.09969 2.04615
lowerneck -19.7521 -5.10146 -9.04211
upperneck 12.9907 -5.59509 6.67595
head 7.67923 -2.49149 2.98443
rclavicle -1.11692e-014 -9.64106e-015
rhumerus -43.6903 22.4416 -92.6544
rradius 111.875
rwrist -0.717694
rhand -12.1478 26.6834
rfingers 7.12502
rthumb 13.9145 -2.83103
lclavicle -1.11692e-014 -9.64106e-015
lhumerus -56.8314 -3.85005 86.2121
lradius 110.176
lwrist 24.6357
lhand -15.5592 9.69749
lfingers 7.12502
lthumb 10.6253 39.4089
rfemur 7.77691 -2.66471 24.8948
rtibia 59.742
rfoot 18.1624 -8.10918
rtoes 11.7337
lfemur -24.926 8.47178 -29.3136
ltibia 24.8314
lfoot 2.48447 2.23682
ltoes 20.0345
39
root -11.3322 17.3473 -15.5842 0.988661 10.4817 -13.3128
lowerback 7.38936 1.65444 5.0444
upperback 0.130447 2.85006 4.77583
thorax -4.01704 1.36862 1.82618
lowerneck -19.7118 -5.02533 -8.83108
upperneck 12.8004 -5.49789 6.41514
head 7.58694 -2.45983 2.87565
rclavicle -2.05245e-014 -3.46879e-014
rhumerus -44.021 21.6868 -92.1847
rradius 111.484
rwrist -1.07523
rhand -12.3153 26.9057
rfingers 7.12502
rthumb 13.7531 -2.6198
lclavicle -2.05245e-014 -3.46879e-014
lhumerus -55.4558 -4.01753 86.0095
lradius 110.039
lwrist 24.2926
lhand -16.2563 9.627
lfingers 7.12502
lthumb 9.95294 39.3717
rfemur 5.49266 -2.16241 24.6796
rtibia 63.5756
rfoot 18.1351 -7.51498
rtoes 9.05775
lfemur -25.5129 8.68661 -28.7257
ltibia 28.0543
lfoot -0.962944 4.72031
ltoes 20.7885
